<?xml version="1.0" encoding="UTF-8" standalone="no" ?>
<!DOCTYPE svg PUBLIC "-//W3C//DTD SVG 1.1//EN" "http://www.w3.org/Graphics/SVG/1.1/DTD/svg11.dtd">
<svg xmlns="http://www.w3.org/2000/svg" xmlns:xlink="http://www.w3.org/1999/xlink" version="1.1" width="1080" height="1080" viewBox="0 0 1080 1080" xml:space="preserve">
<desc>Created with Fabric.js 5.2.4</desc>
<defs>
</defs>
<g transform="matrix(1 0 0 1 540 540)" id="efba8bd5-a0cb-48e6-bbe2-689df3281b62"  >
</g>
<g transform="matrix(1 0 0 1 540 540)" id="532b8d82-53e2-4444-9874-c86bb6b0d0a3"  >
<rect style="stroke: none; stroke-width: 1; stroke-dasharray: none; stroke-linecap: butt; stroke-dashoffset: 0; stroke-linejoin: miter; stroke-miterlimit: 4; fill: rgb(255,255,255); fill-rule: nonzero; opacity: 1; visibility: hidden;" vector-effect="non-scaling-stroke"  x="-540" y="-540" rx="0" ry="0" width="1080" height="1080" />
</g>
<g transform="matrix(1 0 0 1 540 540)"  >
<g style="" vector-effect="non-scaling-stroke"   >
		<g transform="matrix(1 0 0 1 -390.07 329.96)"  >
<path style="stroke: none; stroke-width: 1; stroke-dasharray: none; stroke-linecap: butt; stroke-dashoffset: 0; stroke-linejoin: miter; stroke-miterlimit: 4; fill: rgb(47,46,65); fill-rule: nonzero; opacity: 1;" vector-effect="non-scaling-stroke"  transform=" translate(-209.94, -779.96)" d="M 193.634 788.75225 C 206.06241999999997 811.80125 232.44 821.69575 232.44 821.69575 C 232.44 821.69575 238.66712 794.22032 226.2387 771.1712699999999 C 213.81027999999998 748.1222199999999 187.4327 738.22777 187.4327 738.22777 C 187.4327 738.22777 181.20559 765.7032 193.634 788.75225 Z" stroke-linecap="round" />
</g>
		<g transform="matrix(1 0 0 1 -407.37 347.04)"  >
<path style="stroke: none; stroke-width: 1; stroke-dasharray: none; stroke-linecap: butt; stroke-dashoffset: 0; stroke-linejoin: miter; stroke-miterlimit: 4; fill: rgb(108,99,255); fill-rule: nonzero; opacity: 1;" vector-effect="non-scaling-stroke"  transform=" translate(-192.63, -797.04)" d="M 202.17653 781.16927 C 224.61494000000002 794.66896 233.25669000000002 821.48307 233.25669000000002 821.48307 C 233.25669000000002 821.48307 205.51857 826.40986 183.08016000000003 812.91016 C 160.64175000000006 799.4104600000001 152 772.59636 152 772.59636 C 152 772.59636 179.73811 767.66958 202.17653 781.16927 Z" stroke-linecap="round" />
</g>
		<g transform="matrix(1 0 0 1 35.25 -337.08)"  >
<rect style="stroke: none; stroke-width: 1; stroke-dasharray: none; stroke-linecap: butt; stroke-dashoffset: 0; stroke-linejoin: miter; stroke-miterlimit: 4; fill: rgb(242,242,242); fill-rule: nonzero; opacity: 1;" vector-effect="non-scaling-stroke"  x="-70" y="-1" rx="0" ry="0" width="140" height="2" />
</g>
		<g transform="matrix(1 0 0 1 66.25 -327.33)"  >
<rect style="stroke: none; stroke-width: 1; stroke-dasharray: none; stroke-linecap: butt; stroke-dashoffset: 0; stroke-linejoin: miter; stroke-miterlimit: 4; fill: rgb(242,242,242); fill-rule: nonzero; opacity: 1;" vector-effect="non-scaling-stroke"  x="-1" y="-9.25" rx="0" ry="0" width="2" height="18.5" />
</g>
		<g transform="matrix(1 0 0 1 5.25 -327.33)"  >
<rect style="stroke: none; stroke-width: 1; stroke-dasharray: none; stroke-linecap: butt; stroke-dashoffset: 0; stroke-linejoin: miter; stroke-miterlimit: 4; fill: rgb(242,242,242); fill-rule: nonzero; opacity: 1;" vector-effect="non-scaling-stroke"  x="-1" y="-9.25" rx="0" ry="0" width="2" height="18.5" />
</g>
		<g transform="matrix(1 0 0 1 106.25 -241.08)"  >
<rect style="stroke: none; stroke-width: 1; stroke-dasharray: none; stroke-linecap: butt; stroke-dashoffset: 0; stroke-linejoin: miter; stroke-miterlimit: 4; fill: rgb(242,242,242); fill-rule: nonzero; opacity: 1;" vector-effect="non-scaling-stroke"  x="-70" y="-1" rx="0" ry="0" width="140" height="2" />
</g>
		<g transform="matrix(1 0 0 1 75.25 -250.83)"  >
<rect style="stroke: none; stroke-width: 1; stroke-dasharray: none; stroke-linecap: butt; stroke-dashoffset: 0; stroke-linejoin: miter; stroke-miterlimit: 4; fill: rgb(242,242,242); fill-rule: nonzero; opacity: 1;" vector-effect="non-scaling-stroke"  x="-1" y="-9.25" rx="0" ry="0" width="2" height="18.5" />
</g>
		<g transform="matrix(1 0 0 1 136.25 -250.83)"  >
<rect style="stroke: none; stroke-width: 1; stroke-dasharray: none; stroke-linecap: butt; stroke-dashoffset: 0; stroke-linejoin: miter; stroke-miterlimit: 4; fill: rgb(242,242,242); fill-rule: nonzero; opacity: 1;" vector-effect="non-scaling-stroke"  x="-1" y="-9.25" rx="0" ry="0" width="2" height="18.5" />
</g>
		<g transform="matrix(1 0 0 1 292.25 -196.08)"  >
<rect style="stroke: none; stroke-width: 1; stroke-dasharray: none; stroke-linecap: butt; stroke-dashoffset: 0; stroke-linejoin: miter; stroke-miterlimit: 4; fill: rgb(242,242,242); fill-rule: nonzero; opacity: 1;" vector-effect="non-scaling-stroke"  x="-70" y="-1" rx="0" ry="0" width="140" height="2" />
</g>
		<g transform="matrix(1 0 0 1 261.25 -205.83)"  >
<rect style="stroke: none; stroke-width: 1; stroke-dasharray: none; stroke-linecap: butt; stroke-dashoffset: 0; stroke-linejoin: miter; stroke-miterlimit: 4; fill: rgb(242,242,242); fill-rule: nonzero; opacity: 1;" vector-effect="non-scaling-stroke"  x="-1" y="-9.25" rx="0" ry="0" width="2" height="18.5" />
</g>
		<g transform="matrix(1 0 0 1 322.25 -205.83)"  >
<rect style="stroke: none; stroke-width: 1; stroke-dasharray: none; stroke-linecap: butt; stroke-dashoffset: 0; stroke-linejoin: miter; stroke-miterlimit: 4; fill: rgb(242,242,242); fill-rule: nonzero; opacity: 1;" vector-effect="non-scaling-stroke"  x="-1" y="-9.25" rx="0" ry="0" width="2" height="18.5" />
</g>
		<g transform="matrix(1 0 0 1 278.25 267.92)"  >
<rect style="stroke: none; stroke-width: 1; stroke-dasharray: none; stroke-linecap: butt; stroke-dashoffset: 0; stroke-linejoin: miter; stroke-miterlimit: 4; fill: rgb(242,242,242); fill-rule: nonzero; opacity: 1;" vector-effect="non-scaling-stroke"  x="-70" y="-1" rx="0" ry="0" width="140" height="2" />
</g>
		<g transform="matrix(1 0 0 1 247.25 258.17)"  >
<rect style="stroke: none; stroke-width: 1; stroke-dasharray: none; stroke-linecap: butt; stroke-dashoffset: 0; stroke-linejoin: miter; stroke-miterlimit: 4; fill: rgb(242,242,242); fill-rule: nonzero; opacity: 1;" vector-effect="non-scaling-stroke"  x="-1" y="-9.25" rx="0" ry="0" width="2" height="18.5" />
</g>
		<g transform="matrix(1 0 0 1 308.25 258.17)"  >
<rect style="stroke: none; stroke-width: 1; stroke-dasharray: none; stroke-linecap: butt; stroke-dashoffset: 0; stroke-linejoin: miter; stroke-miterlimit: 4; fill: rgb(242,242,242); fill-rule: nonzero; opacity: 1;" vector-effect="non-scaling-stroke"  x="-1" y="-9.25" rx="0" ry="0" width="2" height="18.5" />
</g>
		<g transform="matrix(1 0 0 1 39.25 -53.08)"  >
<rect style="stroke: none; stroke-width: 1; stroke-dasharray: none; stroke-linecap: butt; stroke-dashoffset: 0; stroke-linejoin: miter; stroke-miterlimit: 4; fill: rgb(242,242,242); fill-rule: nonzero; opacity: 1;" vector-effect="non-scaling-stroke"  x="-70" y="-1" rx="0" ry="0" width="140" height="2" />
</g>
		<g transform="matrix(1 0 0 1 8.25 -62.83)"  >
<rect style="stroke: none; stroke-width: 1; stroke-dasharray: none; stroke-linecap: butt; stroke-dashoffset: 0; stroke-linejoin: miter; stroke-miterlimit: 4; fill: rgb(242,242,242); fill-rule: nonzero; opacity: 1;" vector-effect="non-scaling-stroke"  x="-1" y="-9.25" rx="0" ry="0" width="2" height="18.5" />
</g>
		<g transform="matrix(1 0 0 1 69.25 -62.83)"  >
<rect style="stroke: none; stroke-width: 1; stroke-dasharray: none; stroke-linecap: butt; stroke-dashoffset: 0; stroke-linejoin: miter; stroke-miterlimit: 4; fill: rgb(242,242,242); fill-rule: nonzero; opacity: 1;" vector-effect="non-scaling-stroke"  x="-1" y="-9.25" rx="0" ry="0" width="2" height="18.5" />
</g>
		<g transform="matrix(1 0 0 1 83.25 187.92)"  >
<rect style="stroke: none; stroke-width: 1; stroke-dasharray: none; stroke-linecap: butt; stroke-dashoffset: 0; stroke-linejoin: miter; stroke-miterlimit: 4; fill: rgb(242,242,242); fill-rule: nonzero; opacity: 1;" vector-effect="non-scaling-stroke"  x="-70" y="-1" rx="0" ry="0" width="140" height="2" />
</g>
		<g transform="matrix(1 0 0 1 52.25 178.17)"  >
<rect style="stroke: none; stroke-width: 1; stroke-dasharray: none; stroke-linecap: butt; stroke-dashoffset: 0; stroke-linejoin: miter; stroke-miterlimit: 4; fill: rgb(242,242,242); fill-rule: nonzero; opacity: 1;" vector-effect="non-scaling-stroke"  x="-1" y="-9.25" rx="0" ry="0" width="2" height="18.5" />
</g>
		<g transform="matrix(1 0 0 1 113.25 178.17)"  >
<rect style="stroke: none; stroke-width: 1; stroke-dasharray: none; stroke-linecap: butt; stroke-dashoffset: 0; stroke-linejoin: miter; stroke-miterlimit: 4; fill: rgb(242,242,242); fill-rule: nonzero; opacity: 1;" vector-effect="non-scaling-stroke"  x="-1" y="-9.25" rx="0" ry="0" width="2" height="18.5" />
</g>
		<g transform="matrix(1 0 0 1 307.25 114.92)"  >
<rect style="stroke: none; stroke-width: 1; stroke-dasharray: none; stroke-linecap: butt; stroke-dashoffset: 0; stroke-linejoin: miter; stroke-miterlimit: 4; fill: rgb(242,242,242); fill-rule: nonzero; opacity: 1;" vector-effect="non-scaling-stroke"  x="-70" y="-1" rx="0" ry="0" width="140" height="2" />
</g>
		<g transform="matrix(1 0 0 1 276.25 105.17)"  >
<rect style="stroke: none; stroke-width: 1; stroke-dasharray: none; stroke-linecap: butt; stroke-dashoffset: 0; stroke-linejoin: miter; stroke-miterlimit: 4; fill: rgb(242,242,242); fill-rule: nonzero; opacity: 1;" vector-effect="non-scaling-stroke"  x="-1" y="-9.25" rx="0" ry="0" width="2" height="18.5" />
</g>
		<g transform="matrix(1 0 0 1 337.25 105.17)"  >
<rect style="stroke: none; stroke-width: 1; stroke-dasharray: none; stroke-linecap: butt; stroke-dashoffset: 0; stroke-linejoin: miter; stroke-miterlimit: 4; fill: rgb(242,242,242); fill-rule: nonzero; opacity: 1;" vector-effect="non-scaling-stroke"  x="-1" y="-9.25" rx="0" ry="0" width="2" height="18.5" />
</g>
		<g transform="matrix(1 0 0 1 -204.34 274.78)"  >
<polygon style="stroke: none; stroke-width: 1; stroke-dasharray: none; stroke-linecap: butt; stroke-dashoffset: 0; stroke-linejoin: miter; stroke-miterlimit: 4; fill: rgb(47,46,65); fill-rule: nonzero; opacity: 1;" vector-effect="non-scaling-stroke"  points="118.39,53.42 -118.39,53.42 -118.39,51.72 116.69,51.72 116.69,-30.9 -98.49,-30.9 -108.94,-52.68 -107.4,-53.42 -97.41,-32.61 118.39,-32.61 118.39,53.42 " />
</g>
		<g transform="matrix(1 0 0 1 -291.21 352.05)"  >
<circle style="stroke: none; stroke-width: 1; stroke-dasharray: none; stroke-linecap: butt; stroke-dashoffset: 0; stroke-linejoin: miter; stroke-miterlimit: 4; fill: rgb(63,61,86); fill-rule: nonzero; opacity: 1;" vector-effect="non-scaling-stroke"  cx="0" cy="0" r="17.88673" />
</g>
		<g transform="matrix(1 0 0 1 -114.9 352.05)"  >
<circle style="stroke: none; stroke-width: 1; stroke-dasharray: none; stroke-linecap: butt; stroke-dashoffset: 0; stroke-linejoin: miter; stroke-miterlimit: 4; fill: rgb(63,61,86); fill-rule: nonzero; opacity: 1;" vector-effect="non-scaling-stroke"  cx="0" cy="0" r="17.88673" />
</g>
		<g transform="matrix(1 0 0 1 92.92 -27.84)"  >
<circle style="stroke: none; stroke-width: 1; stroke-dasharray: none; stroke-linecap: butt; stroke-dashoffset: 0; stroke-linejoin: miter; stroke-miterlimit: 4; fill: rgb(63,61,86); fill-rule: nonzero; opacity: 1;" vector-effect="non-scaling-stroke"  cx="0" cy="0" r="11.07274" />
</g>
		<g transform="matrix(1 0 0 1 -192.83 121.65)"  >
<path style="stroke: none; stroke-width: 1; stroke-dasharray: none; stroke-linecap: butt; stroke-dashoffset: 0; stroke-linejoin: miter; stroke-miterlimit: 4; fill: rgb(47,46,65); fill-rule: nonzero; opacity: 1;" vector-effect="non-scaling-stroke"  transform=" translate(-407.17, -571.65)" d="M 539.38538 665.76747 L 273.23673 665.76747 L 215.64844 477.531 L 598.69256 477.531 L 598.34404 478.63853 Z M 274.49688000000003 664.06397 L 538.136 664.06397 L 596.3701699999999 479.23446 L 217.95082 479.23446 Z" stroke-linecap="round" />
</g>
		<g transform="matrix(1 0 0 1 -197.52 122.5)"  >
<polygon style="stroke: none; stroke-width: 1; stroke-dasharray: none; stroke-linecap: butt; stroke-dashoffset: 0; stroke-linejoin: miter; stroke-miterlimit: 4; fill: rgb(242,242,242); fill-rule: nonzero; opacity: 1;" vector-effect="non-scaling-stroke"  points="116.13,83.47 -117.64,83.47 -168.22,-83.47 168.22,-83.47 167.91,-82.49 116.13,83.47 " />
</g>
		<g transform="matrix(1 0 0 1 40.13 -10.69)"  >
<polygon style="stroke: none; stroke-width: 1; stroke-dasharray: none; stroke-linecap: butt; stroke-dashoffset: 0; stroke-linejoin: miter; stroke-miterlimit: 4; fill: rgb(47,46,65); fill-rule: nonzero; opacity: 1;" vector-effect="non-scaling-stroke"  points="-36.67,21.4 -38.31,20.97 -27.07,-21.4 38.31,-21.4 38.31,-19.7 -25.76,-19.7 -36.67,21.4 " />
</g>
		<g transform="matrix(1 0 0 1 -193.09 85.45)"  >
<rect style="stroke: none; stroke-width: 1; stroke-dasharray: none; stroke-linecap: butt; stroke-dashoffset: 0; stroke-linejoin: miter; stroke-miterlimit: 4; fill: rgb(47,46,65); fill-rule: nonzero; opacity: 1;" vector-effect="non-scaling-stroke"  x="-172.645" y="-0.85" rx="0" ry="0" width="345.29" height="1.7" />
</g>
		<g transform="matrix(1 0 0 1 -193.38 148.21)"  >
<rect style="stroke: none; stroke-width: 1; stroke-dasharray: none; stroke-linecap: butt; stroke-dashoffset: 0; stroke-linejoin: miter; stroke-miterlimit: 4; fill: rgb(47,46,65); fill-rule: nonzero; opacity: 1;" vector-effect="non-scaling-stroke"  x="-153.16" y="-0.85" rx="0" ry="0" width="306.32" height="1.7" />
</g>
		<g transform="matrix(1 0 0 1 -192.84 121.64)"  >
<rect style="stroke: none; stroke-width: 1; stroke-dasharray: none; stroke-linecap: butt; stroke-dashoffset: 0; stroke-linejoin: miter; stroke-miterlimit: 4; fill: rgb(47,46,65); fill-rule: nonzero; opacity: 1;" vector-effect="non-scaling-stroke"  x="-0.85" y="-93.265" rx="0" ry="0" width="1.7" height="186.53" />
</g>
		<g transform="matrix(0.07 -1 1 0.07 -120.98 121.64)"  >
<rect style="stroke: none; stroke-width: 1; stroke-dasharray: none; stroke-linecap: butt; stroke-dashoffset: 0; stroke-linejoin: miter; stroke-miterlimit: 4; fill: rgb(47,46,65); fill-rule: nonzero; opacity: 1;" vector-effect="non-scaling-stroke"  x="-93.465" y="-0.85" rx="0" ry="0" width="186.93" height="1.7" />
</g>
		<g transform="matrix(1 -0.07 0.07 1 -264.69 121.65)"  >
<rect style="stroke: none; stroke-width: 1; stroke-dasharray: none; stroke-linecap: butt; stroke-dashoffset: 0; stroke-linejoin: miter; stroke-miterlimit: 4; fill: rgb(47,46,65); fill-rule: nonzero; opacity: 1;" vector-effect="non-scaling-stroke"  x="-0.85" y="-93.465" rx="0" ry="0" width="1.7" height="186.93" />
</g>
		<g transform="matrix(1 0 0 1 0 372.01)"  >
<rect style="stroke: none; stroke-width: 1; stroke-dasharray: none; stroke-linecap: butt; stroke-dashoffset: 0; stroke-linejoin: miter; stroke-miterlimit: 4; fill: rgb(47,46,65); fill-rule: nonzero; opacity: 1;" vector-effect="non-scaling-stroke"  x="-448" y="-1" rx="0" ry="0" width="896" height="2" />
</g>
		<g transform="matrix(1 0 0 1 189.02 -260.19)"  >
<path style="stroke: none; stroke-width: 1; stroke-dasharray: none; stroke-linecap: butt; stroke-dashoffset: 0; stroke-linejoin: miter; stroke-miterlimit: 4; fill: rgb(160,97,106); fill-rule: nonzero; opacity: 1;" vector-effect="non-scaling-stroke"  transform=" translate(-789.02, -189.81)" d="M 747.41068 137.89028 C 747.41068 137.89028 762.0291 179.49654999999998 753.03314 185.89752 C 744.03718 192.29849 783.39448 244.573 783.39448 244.573 L 830.6232200000001 231.77107 L 804.7598600000001 188.03114 C 804.7598600000001 188.03114 801.3863800000001 144.29122 801.3863800000001 137.89024999999998 C 801.3863800000001 131.48927999999995 747.41068 137.89028 747.41068 137.89028 Z" stroke-linecap="round" />
</g>
		<g transform="matrix(1 0 0 1 189.02 -260.19)"  >
<path style="stroke: none; stroke-width: 1; stroke-dasharray: none; stroke-linecap: butt; stroke-dashoffset: 0; stroke-linejoin: miter; stroke-miterlimit: 4; fill: rgb(0,0,0); fill-rule: nonzero; opacity: 0.1;" vector-effect="non-scaling-stroke"  transform=" translate(-789.02, -189.81)" d="M 747.41068 137.89028 C 747.41068 137.89028 762.0291 179.49654999999998 753.03314 185.89752 C 744.03718 192.29849 783.39448 244.573 783.39448 244.573 L 830.6232200000001 231.77107 L 804.7598600000001 188.03114 C 804.7598600000001 188.03114 801.3863800000001 144.29122 801.3863800000001 137.89024999999998 C 801.3863800000001 131.48927999999995 747.41068 137.89028 747.41068 137.89028 Z" stroke-linecap="round" />
</g>
		<g transform="matrix(1 0 0 1 210.9 136.35)"  >
<path style="stroke: none; stroke-width: 1; stroke-dasharray: none; stroke-linecap: butt; stroke-dashoffset: 0; stroke-linejoin: miter; stroke-miterlimit: 4; fill: rgb(47,46,65); fill-rule: nonzero; opacity: 1;" vector-effect="non-scaling-stroke"  transform=" translate(-810.9, -586.34)" d="M 722.87364 434.46832 C 722.87364 434.46832 718.6063300000001 487.8097 722.87364 515.54721 C 727.14095 543.2847199999999 733.54192 620.0963099999999 733.54192 620.0963099999999 C 733.54192 620.0963099999999 733.54192 765.1848499999999 757.01212 767.3184999999999 C 780.48232 769.4521499999998 797.55157 771.5858099999998 799.68522 763.0511899999999 C 801.81887 754.51657 789.01695 750.2492599999999 795.41791 745.9819499999999 C 801.8188700000001 741.7146399999998 803.95253 726.7790599999998 795.41791 709.7098199999999 C 786.88329 692.64058 795.41791 519.8145199999999 795.41791 519.8145199999999 L 835.95736 628.6309299999999 C 835.95736 628.6309299999999 840.22467 718.2444399999999 844.49198 731.0463699999999 C 848.7592900000001 743.8482999999999 840.2246700000001 767.3184999999999 855.16025 769.4521599999999 C 870.09583 771.58582 887.16508 758.78388 895.6997 754.5165699999999 C 904.23432 750.2492599999998 882.89777 750.2492599999999 887.16508 748.1155699999999 C 891.4323899999999 745.9818799999999 904.23432 739.5809499999999 899.96701 737.44729 C 895.6996999999999 735.31363 891.4323899999999 632.8982 891.4323899999999 632.8982 C 891.4323899999999 632.8982 879.69728 414.1986 864.7617 405.664 C 849.8261200000001 397.1294 840.2247 411.82975999999996 840.2247 411.82975999999996 Z" stroke-linecap="round" />
</g>
		<g transform="matrix(1 0 0 1 174.08 341.38)"  >
<path style="stroke: none; stroke-width: 1; stroke-dasharray: none; stroke-linecap: butt; stroke-dashoffset: 0; stroke-linejoin: miter; stroke-miterlimit: 4; fill: rgb(47,46,65); fill-rule: nonzero; opacity: 1;" vector-effect="non-scaling-stroke"  transform=" translate(-774.08, -791.38)" d="M 761.27943 758.78388 L 761.27943 775.85312 C 761.27943 775.85312 742.07654 822.25254 761.27943 822.25254 C 780.4823200000001 822.25254 795.41791 827.06084 795.41791 820.6598799999999 L 795.41791 763.05119 Z" stroke-linecap="round" />
</g>
		<g transform="matrix(1 0 0 1 274.37 341.35)"  >
<path style="stroke: none; stroke-width: 1; stroke-dasharray: none; stroke-linecap: butt; stroke-dashoffset: 0; stroke-linejoin: miter; stroke-miterlimit: 4; fill: rgb(47,46,65); fill-rule: nonzero; opacity: 1;" vector-effect="non-scaling-stroke"  transform=" translate(-874.36, -791.35)" d="M 887.16508 758.75358 L 887.16508 775.8228200000001 C 887.16508 775.8228200000001 906.36797 822.2222300000001 887.16508 822.2222300000001 C 867.96219 822.2222300000001 853.0266 827.0305400000001 853.0266 820.6295700000001 L 853.0266 763.02089 Z" stroke-linecap="round" />
</g>
		<g transform="matrix(1 0 0 1 177.29 -319.57)"  >
<circle style="stroke: none; stroke-width: 1; stroke-dasharray: none; stroke-linecap: butt; stroke-dashoffset: 0; stroke-linejoin: miter; stroke-miterlimit: 4; fill: rgb(160,97,106); fill-rule: nonzero; opacity: 1;" vector-effect="non-scaling-stroke"  cx="0" cy="0" r="38.40579" />
</g>
		<g transform="matrix(1 0 0 1 200.75 -126.17)"  >
<path style="stroke: none; stroke-width: 1; stroke-dasharray: none; stroke-linecap: butt; stroke-dashoffset: 0; stroke-linejoin: miter; stroke-miterlimit: 4; fill: rgb(108,99,255); fill-rule: nonzero; opacity: 1;" vector-effect="non-scaling-stroke"  transform=" translate(-800.75, -323.83)" d="M 765.54674 201.89993 C 765.54674 201.89993 776.21502 233.90475 793.28426 227.50379 L 810.3535 221.10279 L 840.22467 425.9337 C 840.22467 425.9337 816.75446 460.07218 782.6159799999999 438.73563 C 748.4774999999998 417.39908 765.54674 201.89993 765.54674 201.89993 Z" stroke-linecap="round" />
</g>
		<g transform="matrix(1 0 0 1 237.03 -137.68)"  >
<path style="stroke: none; stroke-width: 1; stroke-dasharray: none; stroke-linecap: butt; stroke-dashoffset: 0; stroke-linejoin: miter; stroke-miterlimit: 4; fill: rgb(63,61,86); fill-rule: nonzero; opacity: 1;" vector-effect="non-scaling-stroke"  transform=" translate(-837.02, -312.32)" d="M 795.41791 195.499 L 805.01936 175.22928 C 805.01936 175.22928 861.56122 201.89997 870.09584 210.43459 C 878.6304599999999 218.96920999999998 878.63046 231.77113999999997 878.63046 231.77113999999997 L 863.6948699999999 285.11251 C 863.6948699999999 285.11251 867.9621799999999 402.46351 867.9621799999999 406.73085 C 867.9621799999999 410.99818999999997 882.8977699999999 434.46835999999996 872.2294899999998 425.93374 C 861.5612099999997 417.39912000000004 859.4275599999999 408.8645 850.8929399999998 421.66643 C 842.3583199999998 434.46835999999996 823.1554299999998 449.40395 823.1554299999998 449.40395 Z" stroke-linecap="round" />
</g>
		<g transform="matrix(1 0 0 1 266.28 -51.56)"  >
<path style="stroke: none; stroke-width: 1; stroke-dasharray: none; stroke-linecap: butt; stroke-dashoffset: 0; stroke-linejoin: miter; stroke-miterlimit: 4; fill: rgb(160,97,106); fill-rule: nonzero; opacity: 1;" vector-effect="non-scaling-stroke"  transform=" translate(-866.28, -398.45)" d="M 870.09584 349.12212 L 863.69484 408.86446 C 863.69484 408.86446 825.28905 443.00294 833.82367 445.1366 C 842.35829 447.27025999999995 846.6256 438.7356 846.6256 438.7356 C 846.6256 438.7356 861.56119 453.67118999999997 870.0958099999999 445.1366 C 878.6304299999998 436.60201 899.967 355.52309 899.967 355.52309 Z" stroke-linecap="round" />
</g>
		<g transform="matrix(1 0 0 1 177.87 -338.2)"  >
<path style="stroke: none; stroke-width: 1; stroke-dasharray: none; stroke-linecap: butt; stroke-dashoffset: 0; stroke-linejoin: miter; stroke-miterlimit: 4; fill: rgb(47,46,65); fill-rule: nonzero; opacity: 1;" vector-effect="non-scaling-stroke"  transform=" translate(-777.88, -111.81)" d="M 778.1 76.14416 C 769.58588 75.83979 760.47451 75.68923 753.29594 80.27737 C 749.9930465771853 82.57996089066675 747.0960926170922 85.41582478539048 744.7236399999999 88.66890000000001 C 737.7321099999999 97.50736 731.69111 108.62816000000001 734.28811 119.59427000000001 L 737.30444 118.41787000000001 C 737.3043407249464 121.34506453617055 736.6535982445864 124.2356399878245 735.39929 126.88048 C 735.82404 125.64538 737.24651 127.64199 736.86569 128.89133 L 733.543 139.792 C 739.00507 137.78961 745.79961 141.84389 746.6311900000001 147.60169 C 747.01093 134.94046 748.3243900000001 120.42204 758.5951900000001 113.00837999999999 C 763.7747000000002 109.26969999999999 770.3298400000001 108.12837999999999 776.6368100000001 107.11487999999999 C 782.45513 106.17987999999998 788.5546200000001 105.28828999999999 794.1275800000001 107.20373999999998 C 799.70054 109.11918999999997 804.4462900000001 114.81873999999998 803.1828800000001 120.57466999999998 C 805.7525200000001 119.68948999999998 808.6264400000001 121.48032999999998 809.8963500000001 123.88322999999998 C 811.1662600000001 126.28612999999999 811.2329700000001 129.12072999999998 811.27119 131.83828999999997 C 814.0103 133.77411999999998 817.12751 129.93008999999998 818.24382 126.76716999999998 C 820.86415 119.34282999999998 823.1932300000001 111.43977999999998 821.78165 103.69416999999999 C 820.3700699999999 95.94855999999999 814.0584 88.54643999999999 806.1852700000001 88.52016999999998 C 807.1409053142379 87.47050336522639 807.6507738311014 86.09027649459198 807.60703 84.67142999999997 L 801.11775 84.12312999999997 C 802.7651760729883 83.88986284470577 804.2802510526303 83.09108257999121 805.4035 81.86358999999997 C 802.7981 84.73052 782.31323 76.29477 778.1 76.14416 Z" stroke-linecap="round" />
</g>
		<g transform="matrix(1 0 0 1 145.87 -131.78)"  >
<path style="stroke: none; stroke-width: 1; stroke-dasharray: none; stroke-linecap: butt; stroke-dashoffset: 0; stroke-linejoin: miter; stroke-miterlimit: 4; fill: rgb(63,61,86); fill-rule: nonzero; opacity: 1;" vector-effect="non-scaling-stroke"  transform=" translate(-745.87, -318.23)" d="M 776.215 189.098 C 776.215 189.098 758.84571 172.07715000000002 752.59477 173.11978000000002 C 746.34383 174.16241000000002 737.80923 189.098 737.80923 189.098 C 737.80923 189.098 686.60151 206.16724000000002 688.73516 223.23648000000003 C 690.8688099999999 240.30572000000004 714.339 323.51826 714.339 323.51826 C 714.339 323.51826 733.5419 423.80005 716.47266 434.46832 C 699.40342 445.13659 797.55155 472.87411000000003 799.6852 460.07218 C 801.81885 447.27025 806.0862 319.25095 799.6852 300.04805999999996 C 793.2842 280.84516999999994 776.215 189.098 776.215 189.098 Z" stroke-linecap="round" />
</g>
		<g transform="matrix(1 0 0 1 276.78 -157.42)"  >
<path style="stroke: none; stroke-width: 1; stroke-dasharray: none; stroke-linecap: butt; stroke-dashoffset: 0; stroke-linejoin: miter; stroke-miterlimit: 4; fill: rgb(63,61,86); fill-rule: nonzero; opacity: 1;" vector-effect="non-scaling-stroke"  transform=" translate(-876.79, -292.58)" d="M 850.89294 223.23648 L 877.27559 223.23648 C 877.27559 223.23648 895.6997 304.31537 897.83335 312.85 C 899.967 321.3846300000001 904.23435 361.92406000000005 902.10066 361.92406000000005 C 899.96697 361.92406000000005 857.29391 353.38944000000004 857.29391 359.79041000000007 Z" stroke-linecap="round" />
</g>
		<g transform="matrix(1 0 0 1 195.65 -91.49)"  >
<path style="stroke: none; stroke-width: 1; stroke-dasharray: none; stroke-linecap: butt; stroke-dashoffset: 0; stroke-linejoin: miter; stroke-miterlimit: 4; fill: rgb(242,242,242); fill-rule: nonzero; opacity: 1;" vector-effect="non-scaling-stroke"  transform=" translate(-795.65, -358.51)" d="M 850 424.01429 L 749 424.01429 C 739.14392 378.67429000000004 738.32043 334.8678 749 293.01429 L 850 293.01429 C 833.70081 334.115 832.68225 377.62137 850 424.01429 Z" stroke-linecap="round" />
</g>
		<g transform="matrix(1 0 0 1 151.68 -83.99)"  >
<path style="stroke: none; stroke-width: 1; stroke-dasharray: none; stroke-linecap: butt; stroke-dashoffset: 0; stroke-linejoin: miter; stroke-miterlimit: 4; fill: rgb(160,97,106); fill-rule: nonzero; opacity: 1;" vector-effect="non-scaling-stroke"  transform=" translate(-751.68, -366.01)" d="M 707.93806 368.325 L 737.80923 381.127 C 737.80923 381.127 795.41791 389.66162 795.41791 366.19141 C 795.41791 342.7212 737.80923 355.52314 737.80923 355.52314 L 718.60505 349.383 Z" stroke-linecap="round" />
</g>
		<g transform="matrix(1 0 0 1 97.39 -154.22)"  >
<path style="stroke: none; stroke-width: 1; stroke-dasharray: none; stroke-linecap: butt; stroke-dashoffset: 0; stroke-linejoin: miter; stroke-miterlimit: 4; fill: rgb(63,61,86); fill-rule: nonzero; opacity: 1;" vector-effect="non-scaling-stroke"  transform=" translate(-697.38, -295.78)" d="M 714.339 210.43455 L 688.73514 216.83555 L 669.53227 329.91923 C 669.53227 329.91923 663.1312700000001 359.79040000000003 673.79958 361.92405 C 684.4678899999999 364.0577 714.339 381.127 714.339 381.127 C 714.339 381.127 718.60631 349.12217 727.14093 349.12217 L 705.8044 332.05288 L 718.60633 257.375 Z" stroke-linecap="round" />
</g>
		<g transform="matrix(1 0 0 1 -317.75 -20.08)"  >
<rect style="stroke: none; stroke-width: 1; stroke-dasharray: none; stroke-linecap: butt; stroke-dashoffset: 0; stroke-linejoin: miter; stroke-miterlimit: 4; fill: rgb(242,242,242); fill-rule: nonzero; opacity: 1;" vector-effect="non-scaling-stroke"  x="-70" y="-1" rx="0" ry="0" width="140" height="2" />
</g>
		<g transform="matrix(1 0 0 1 -348.75 -29.83)"  >
<rect style="stroke: none; stroke-width: 1; stroke-dasharray: none; stroke-linecap: butt; stroke-dashoffset: 0; stroke-linejoin: miter; stroke-miterlimit: 4; fill: rgb(242,242,242); fill-rule: nonzero; opacity: 1;" vector-effect="non-scaling-stroke"  x="-1" y="-9.25" rx="0" ry="0" width="2" height="18.5" />
</g>
		<g transform="matrix(1 0 0 1 -287.75 -29.83)"  >
<rect style="stroke: none; stroke-width: 1; stroke-dasharray: none; stroke-linecap: butt; stroke-dashoffset: 0; stroke-linejoin: miter; stroke-miterlimit: 4; fill: rgb(242,242,242); fill-rule: nonzero; opacity: 1;" vector-effect="non-scaling-stroke"  x="-1" y="-9.25" rx="0" ry="0" width="2" height="18.5" />
</g>
		<g transform="matrix(1 0 0 1 -268.75 -316.08)"  >
<rect style="stroke: none; stroke-width: 1; stroke-dasharray: none; stroke-linecap: butt; stroke-dashoffset: 0; stroke-linejoin: miter; stroke-miterlimit: 4; fill: rgb(242,242,242); fill-rule: nonzero; opacity: 1;" vector-effect="non-scaling-stroke"  x="-70" y="-1" rx="0" ry="0" width="140" height="2" />
</g>
		<g transform="matrix(1 0 0 1 -237.75 -306.33)"  >
<rect style="stroke: none; stroke-width: 1; stroke-dasharray: none; stroke-linecap: butt; stroke-dashoffset: 0; stroke-linejoin: miter; stroke-miterlimit: 4; fill: rgb(242,242,242); fill-rule: nonzero; opacity: 1;" vector-effect="non-scaling-stroke"  x="-1" y="-9.25" rx="0" ry="0" width="2" height="18.5" />
</g>
		<g transform="matrix(1 0 0 1 -298.75 -306.33)"  >
<rect style="stroke: none; stroke-width: 1; stroke-dasharray: none; stroke-linecap: butt; stroke-dashoffset: 0; stroke-linejoin: miter; stroke-miterlimit: 4; fill: rgb(242,242,242); fill-rule: nonzero; opacity: 1;" vector-effect="non-scaling-stroke"  x="-1" y="-9.25" rx="0" ry="0" width="2" height="18.5" />
</g>
		<g transform="matrix(1 0 0 1 -127.75 -119.08)"  >
<rect style="stroke: none; stroke-width: 1; stroke-dasharray: none; stroke-linecap: butt; stroke-dashoffset: 0; stroke-linejoin: miter; stroke-miterlimit: 4; fill: rgb(242,242,242); fill-rule: nonzero; opacity: 1;" vector-effect="non-scaling-stroke"  x="-70" y="-1" rx="0" ry="0" width="140" height="2" />
</g>
		<g transform="matrix(1 0 0 1 -96.75 -109.33)"  >
<rect style="stroke: none; stroke-width: 1; stroke-dasharray: none; stroke-linecap: butt; stroke-dashoffset: 0; stroke-linejoin: miter; stroke-miterlimit: 4; fill: rgb(242,242,242); fill-rule: nonzero; opacity: 1;" vector-effect="non-scaling-stroke"  x="-1" y="-9.25" rx="0" ry="0" width="2" height="18.5" />
</g>
		<g transform="matrix(1 0 0 1 -157.75 -109.33)"  >
<rect style="stroke: none; stroke-width: 1; stroke-dasharray: none; stroke-linecap: butt; stroke-dashoffset: 0; stroke-linejoin: miter; stroke-miterlimit: 4; fill: rgb(242,242,242); fill-rule: nonzero; opacity: 1;" vector-effect="non-scaling-stroke"  x="-1" y="-9.25" rx="0" ry="0" width="2" height="18.5" />
</g>
		<g transform="matrix(1 0 0 1 -365.75 -120.08)"  >
<rect style="stroke: none; stroke-width: 1; stroke-dasharray: none; stroke-linecap: butt; stroke-dashoffset: 0; stroke-linejoin: miter; stroke-miterlimit: 4; fill: rgb(242,242,242); fill-rule: nonzero; opacity: 1;" vector-effect="non-scaling-stroke"  x="-70" y="-1" rx="0" ry="0" width="140" height="2" />
</g>
		<g transform="matrix(1 0 0 1 -334.75 -110.33)"  >
<rect style="stroke: none; stroke-width: 1; stroke-dasharray: none; stroke-linecap: butt; stroke-dashoffset: 0; stroke-linejoin: miter; stroke-miterlimit: 4; fill: rgb(242,242,242); fill-rule: nonzero; opacity: 1;" vector-effect="non-scaling-stroke"  x="-1" y="-9.25" rx="0" ry="0" width="2" height="18.5" />
</g>
		<g transform="matrix(1 0 0 1 -395.75 -110.33)"  >
<rect style="stroke: none; stroke-width: 1; stroke-dasharray: none; stroke-linecap: butt; stroke-dashoffset: 0; stroke-linejoin: miter; stroke-miterlimit: 4; fill: rgb(242,242,242); fill-rule: nonzero; opacity: 1;" vector-effect="non-scaling-stroke"  x="-1" y="-9.25" rx="0" ry="0" width="2" height="18.5" />
</g>
		<g transform="matrix(1 0 0 1 -197.75 -220.08)"  >
<rect style="stroke: none; stroke-width: 1; stroke-dasharray: none; stroke-linecap: butt; stroke-dashoffset: 0; stroke-linejoin: miter; stroke-miterlimit: 4; fill: rgb(242,242,242); fill-rule: nonzero; opacity: 1;" vector-effect="non-scaling-stroke"  x="-70" y="-1" rx="0" ry="0" width="140" height="2" />
</g>
		<g transform="matrix(1 0 0 1 -228.75 -229.83)"  >
<rect style="stroke: none; stroke-width: 1; stroke-dasharray: none; stroke-linecap: butt; stroke-dashoffset: 0; stroke-linejoin: miter; stroke-miterlimit: 4; fill: rgb(242,242,242); fill-rule: nonzero; opacity: 1;" vector-effect="non-scaling-stroke"  x="-1" y="-9.25" rx="0" ry="0" width="2" height="18.5" />
</g>
		<g transform="matrix(1 0 0 1 -167.75 -229.83)"  >
<rect style="stroke: none; stroke-width: 1; stroke-dasharray: none; stroke-linecap: butt; stroke-dashoffset: 0; stroke-linejoin: miter; stroke-miterlimit: 4; fill: rgb(242,242,242); fill-rule: nonzero; opacity: 1;" vector-effect="non-scaling-stroke"  x="-1" y="-9.25" rx="0" ry="0" width="2" height="18.5" />
</g>
</g>
</g>
<g transform="matrix(1 0 0 1 540 972.02)" style="" id="2de76a68-6f4d-4fc6-b5ed-e25926a2ef39"  >
		<text xml:space="preserve" font-family="Alegreya" font-size="80" font-style="normal" font-weight="600" style="stroke: none; stroke-width: 1; stroke-dasharray: none; stroke-linecap: butt; stroke-dashoffset: 0; stroke-linejoin: miter; stroke-miterlimit: 4; fill: rgb(0,0,0); fill-opacity: 0.66; fill-rule: nonzero; opacity: 1; white-space: pre;" ><tspan x="-300.44" y="25.13" >Your cart is empty</tspan></text>
</g>
</svg>