<?xml version="1.0" encoding="UTF-8" standalone="no" ?>
<!DOCTYPE svg PUBLIC "-//W3C//DTD SVG 1.1//EN" "http://www.w3.org/Graphics/SVG/1.1/DTD/svg11.dtd">
<svg xmlns="http://www.w3.org/2000/svg" xmlns:xlink="http://www.w3.org/1999/xlink" version="1.1" width="1080" height="1080" viewBox="0 0 1080 1080" xml:space="preserve">
<desc>Created with Fabric.js 5.2.4</desc>
<defs>
</defs>
<g transform="matrix(1 0 0 1 540 540)" id="3678a586-d8d2-48a3-a99b-8da0927b9854"  >
<rect style="stroke: none; stroke-width: 1; stroke-dasharray: none; stroke-linecap: butt; stroke-dashoffset: 0; stroke-linejoin: miter; stroke-miterlimit: 4; fill: rgb(255,255,255); fill-rule: nonzero; opacity: 1; visibility: hidden;" vector-effect="non-scaling-stroke"  x="-540" y="-540" rx="0" ry="0" width="1080" height="1080" />
</g>
<g transform="matrix(1 0 0 1 540 540)" id="db8104b0-7f40-4b9a-a52e-cdf431963135"  >
</g>
<g transform="matrix(1 0 0 1 540 540)"  >
<g style="" vector-effect="non-scaling-stroke"   >
		<g transform="matrix(1 0 0 1 -98.67 -22.44)"  >
<path style="stroke: none; stroke-width: 1; stroke-dasharray: none; stroke-linecap: butt; stroke-dashoffset: 0; stroke-linejoin: miter; stroke-miterlimit: 4; fill: rgb(242,242,242); fill-rule: nonzero; opacity: 1;" vector-effect="non-scaling-stroke"  transform=" translate(-501.33, -427.56)" d="M 687.3279 276.08691 L 512.81813 276.08691 C 504.5380344143123 276.09698227556146 497.82820227556147 282.80681441431227 497.81813 291.08691 L 497.81813 678.93691 L 495.81813 679.54696 L 453.00807 692.65696 C 448.78356662599333 693.9450515128658 444.31384625453484 691.5691923641348 443.01833 687.3469600000001 L 315.678 271.39691 C 314.3875901339901 267.1720998943819 316.76429228285105 262.7007277315211 320.98806 261.40691 L 386.95828 241.20691 L 578.2082800000001 182.66691 L 644.1780000000001 162.46691 C 646.2056109507048 161.84287702379822 648.3981641236746 162.05090798737092 650.2722334373904 163.04513508929176 C 652.1463027511061 164.03936219121258 653.5479887282713 165.73813902161837 654.1682400000001 167.76691000000002 L 686.7180400000001 274.08691 Z" stroke-linecap="round" />
</g>
		<g transform="matrix(1 0 0 1 -98.9 -22.44)"  >
<path style="stroke: none; stroke-width: 1; stroke-dasharray: none; stroke-linecap: butt; stroke-dashoffset: 0; stroke-linejoin: miter; stroke-miterlimit: 4; fill: rgb(63,61,86); fill-rule: nonzero; opacity: 1;" vector-effect="non-scaling-stroke"  transform=" translate(-501.1, -427.56)" d="M 725.408 274.08691 L 686.178 145.94691 C 684.8598365877394 141.634944967068 681.8820541924166 138.02360637295047 677.9002542133946 135.90798207886814 C 673.9184542343726 133.79235778478582 669.259094600642 133.34590259238786 664.948 134.66691 L 572.198 163.05691000000002 L 380.95827 221.60693 L 288.20827 250.00693 C 279.2368144151116 252.76175267714146 274.1898503426635 262.2603686031711 276.92799 271.23693000000003 L 411.00807000000003 709.1669300000001 C 413.201003607138 716.310643546601 419.79560979092895 721.1896007336943 427.26833000000005 721.1969300000001 C 428.9531512312297 721.1977046811688 430.62849212504676 720.9448723947697 432.23805000000004 720.4469300000001 L 495.81813000000005 700.98693 L 497.81813000000005 700.36693 L 497.81813000000005 698.27693 L 495.81813000000005 698.88693 L 431.64821000000006 718.53693 C 423.7294731158724 720.9507920987397 415.35100515065506 716.4998707824603 412.91821000000004 708.5869299999999 L 278.84838 270.64692999999994 C 277.6791833985639 266.8437638972813 278.0711181364162 262.731689393698 279.93771916188393 259.2178746988968 C 281.80432018735166 255.70406000409562 284.9922044048856 253.07724372248157 288.79809 251.91692999999995 L 381.54809 223.51692999999995 L 572.78833 164.97692999999995 L 665.53833 136.57692999999995 C 666.9676386708886 136.14072902758105 668.4536029599417 135.91832266727775 669.94799 135.91692999999995 C 676.5312616375828 135.9317116744477 682.3370864773378 140.23327766946744 684.26831 146.52692999999994 L 723.31811 274.08692999999994 L 723.9382300000001 276.08692999999994 L 726.01831 276.08692999999994 Z" stroke-linecap="round" />
</g>
		<g transform="matrix(1 0 0 1 -119.61 -245.24)"  >
<path style="stroke: none; stroke-width: 1; stroke-dasharray: none; stroke-linecap: butt; stroke-dashoffset: 0; stroke-linejoin: miter; stroke-miterlimit: 4; fill: rgb(108,99,255); fill-rule: nonzero; opacity: 1;" vector-effect="non-scaling-stroke"  transform=" translate(-480.39, -204.77)" d="M 398.86279 261.73389 C 394.90630313563605 261.7310715367656 391.4139573448818 259.14904089271937 390.25146 255.36718999999997 L 377.37109 213.29540999999998 C 376.67206674362956 211.01303236693028 376.9084986917161 208.54643567321267 378.0283580547043 206.43840432145072 C 379.14821741769254 204.3303729696888 381.0597408407969 202.7536429615841 383.34229 202.05517999999998 L 559.28129 148.19140999999996 C 564.033602278521 146.74123408968921 569.0627829559259 149.41256911721243 570.52201 154.16210999999996 L 583.40238 196.23437999999996 C 584.851595592245 200.986599715229 582.1806065118581 206.01512909632103 577.43168 207.47509999999997 L 401.49219 261.33887 C 400.6401941382478 261.6003482672561 399.75400695796884 261.7334819327135 398.86279 261.73389 Z" stroke-linecap="round" />
</g>
		<g transform="matrix(1 0 0 1 -133.67 -291.14)"  >
<circle style="stroke: none; stroke-width: 1; stroke-dasharray: none; stroke-linecap: butt; stroke-dashoffset: 0; stroke-linejoin: miter; stroke-miterlimit: 4; fill: rgb(108,99,255); fill-rule: nonzero; opacity: 1;" vector-effect="non-scaling-stroke"  cx="0" cy="0" r="20" />
</g>
		<g transform="matrix(1 0 0 1 -133.67 -291.14)"  >
<circle style="stroke: none; stroke-width: 1; stroke-dasharray: none; stroke-linecap: butt; stroke-dashoffset: 0; stroke-linejoin: miter; stroke-miterlimit: 4; fill: rgb(255,255,255); fill-rule: nonzero; opacity: 1;" vector-effect="non-scaling-stroke"  cx="0" cy="0" r="12.66462" />
</g>
		<g transform="matrix(1 0 0 1 109.82 55.08)"  >
<path style="stroke: none; stroke-width: 1; stroke-dasharray: none; stroke-linecap: butt; stroke-dashoffset: 0; stroke-linejoin: miter; stroke-miterlimit: 4; fill: rgb(230,230,230); fill-rule: nonzero; opacity: 1;" vector-effect="non-scaling-stroke"  transform=" translate(-709.82, -505.09)" d="M 878.81836 716.08691 L 540.81836 716.08691 C 536.1261806782851 716.0815040263469 532.323765973653 712.2790893217149 532.31836 707.58691 L 532.31836 302.58691 C 532.3236010064713 297.8946622369787 536.1261122369787 294.09215100647134 540.81836 294.08691 L 878.81836 294.08691 C 883.5105370404383 294.0923214721764 887.3129485278236 297.89473295956174 887.31836 302.58691 L 887.31836 707.58691 C 887.312778085846 712.2790163240688 883.5104663240688 716.081328085846 878.81836 716.08691 Z" stroke-linecap="round" />
</g>
		<g transform="matrix(1 0 0 1 109.82 70.08)"  >
<path style="stroke: none; stroke-width: 1; stroke-dasharray: none; stroke-linecap: butt; stroke-dashoffset: 0; stroke-linejoin: miter; stroke-miterlimit: 4; fill: rgb(63,61,86); fill-rule: nonzero; opacity: 1;" vector-effect="non-scaling-stroke"  transform=" translate(-709.82, -520.09)" d="M 723.31813 274.08691 L 512.81813 274.08691 C 503.43479532548406 274.10018954611127 495.8314095461113 281.70357532548405 495.81813 291.08691 L 495.81813 698.88691 L 497.81813 698.2769099999999 L 497.81813 291.08690999999993 C 497.82820227556147 282.8068144143122 504.5380344143123 276.0969822755614 512.81813 276.08690999999993 L 723.93825 276.08690999999993 Z M 906.81813 274.08691 L 512.81813 274.08691 C 503.43479532548406 274.10018954611127 495.8314095461113 281.70357532548405 495.81813 291.08691 L 495.81813 749.08691 C 495.8314040531078 758.4702469543467 503.4347930456533 766.0736359468922 512.81813 766.08691 L 906.81813 766.08691 C 916.2014669543466 766.0736359468922 923.8048559468922 758.4702469543467 923.81813 749.08691 L 923.81813 291.08691 C 923.8048504538887 281.70357532548405 916.2014646745159 274.10018954611127 906.81813 274.08691 Z M 921.81813 749.08691 C 921.8080577244385 757.3670055856877 915.0982255856877 764.0768377244385 906.81813 764.08691 L 512.81813 764.08691 C 504.5380344143123 764.0768377244385 497.82820227556147 757.3670055856877 497.81813 749.08691 L 497.81813 291.08691 C 497.82820227556147 282.80681441431227 504.5380344143123 276.09698227556146 512.81813 276.08691 L 906.81813 276.08691 C 915.0982255856877 276.09698227556146 921.8080577244385 282.80681441431227 921.81813 291.08691 Z" stroke-linecap="round" />
</g>
		<g transform="matrix(1 0 0 1 109.82 -162.92)"  >
<path style="stroke: none; stroke-width: 1; stroke-dasharray: none; stroke-linecap: butt; stroke-dashoffset: 0; stroke-linejoin: miter; stroke-miterlimit: 4; fill: rgb(108,99,255); fill-rule: nonzero; opacity: 1;" vector-effect="non-scaling-stroke"  transform=" translate(-709.82, -287.09)" d="M 801.81836 318.08691 L 617.81836 318.08691 C 612.8501160484803 318.081316382089 608.8239536179109 314.0551539515196 608.81836 309.08691 L 608.81836 265.08691 C 608.8239591169878 260.118668329902 612.850118329902 256.0925091169878 617.81836 256.08691 L 801.81836 256.08691 C 806.786601670098 256.0925091169878 810.8127608830122 260.118668329902 810.81836 265.08691 L 810.81836 309.08691 C 810.8127663820891 314.0551539515196 806.7866039515196 318.081316382089 801.81836 318.08691 Z" stroke-linecap="round" />
</g>
		<g transform="matrix(1 0 0 1 109.82 -210.92)"  >
<circle style="stroke: none; stroke-width: 1; stroke-dasharray: none; stroke-linecap: butt; stroke-dashoffset: 0; stroke-linejoin: miter; stroke-miterlimit: 4; fill: rgb(108,99,255); fill-rule: nonzero; opacity: 1;" vector-effect="non-scaling-stroke"  cx="0" cy="0" r="20" />
</g>
		<g transform="matrix(1 0 0 1 109.82 -210.92)"  >
<circle style="stroke: none; stroke-width: 1; stroke-dasharray: none; stroke-linecap: butt; stroke-dashoffset: 0; stroke-linejoin: miter; stroke-miterlimit: 4; fill: rgb(255,255,255); fill-rule: nonzero; opacity: 1;" vector-effect="non-scaling-stroke"  cx="0" cy="0" r="12.18187" />
</g>
</g>
</g>
<g transform="matrix(1 0 0 1 540 896.76)" style="" id="54c301a1-5b37-4bbc-bd6b-ab4f4a73efe5"  >
		<text xml:space="preserve" font-family="Lato" font-size="46" font-style="normal" font-weight="400" style="stroke: none; stroke-width: 1; stroke-dasharray: none; stroke-linecap: butt; stroke-dashoffset: 0; stroke-linejoin: miter; stroke-miterlimit: 4; fill: rgb(0,0,0); fill-opacity: 0.49; fill-rule: nonzero; opacity: 1; white-space: pre;" ><tspan x="-142.78" y="14.45" >No data found</tspan></text>
</g>
</svg>